<?xml version="1.0" encoding="UTF-8"?>
<svg id="Layer_2" data-name="Layer 2" xmlns="http://www.w3.org/2000/svg" viewBox="0 0 714.09 239.47">
  <defs>
    <style>
      .cls2-1 {
        fill: #005880;
        font-family: Boogaloo-Regular, Boogaloo;
        font-size: 65px;
      }

      .cls2-2 {
        fill: #009ee2;
      }

      .cls2-2, .cls2-3 {
        stroke-width: 0px;
      }

      .cls2-3 {
        fill: #fff;
      }
    </style>
  </defs>
  <g id="top">
    <g>
      <path class="cls2-2" d="m711.82,72.38c-5.03-11.93-19.96-21.16-33.14-16.26-7.86,2.91-15.72,5.83-23.58,8.74.4-5.43-.73-10.92-3.65-15.45-3.37-5.25-8.23-9.92-14.23-11.98,3-3.47,5.36-7.79,6.17-11.37,1.43-6.29,1.1-12.33-1.42-18.3-1.17-2.76-2.86-5.38-4.94-7.71l-166.66.03-132.28-.03-273.75-.05C47.61,9.07,31.13,18.59,14.88,28.49c-9.47,5.76-13.37,17.49-9.07,27.68,2.8,6.63,9.94,12.64,17.55,13.8-4.22,2.55-8.44,5.1-12.65,7.66-7.82,4.77-12.8,15.15-9.86,24.23,2.83,8.74,11.03,16.17,20.69,15.75,21.23-.92,40.73-7.62,59.69-16.07-1.48,5.59-.43,11.95,2.33,16.93-5,3.94-9.95,7.93-14.84,12.01-8.4,7.01-7.88,20.91-1.72,28.89,6.94,8.98,18.44,10.64,28.38,5.67,7.55-3.78,15.1-7.56,22.66-11.33,4.28,9.05,15.71,15.84,25.83,12.08,1.22-.45,2.44-.91,3.66-1.36-8.85,5.35-17.69,10.71-26.55,16.04-10.32,6.2-15.06,20.95-8.26,31.49,7.35,11.4,19.69,13.54,31.49,8.26,14.95-6.69,29.91-13.38,44.87-20.06,5.43,4.73,13,6.78,20.4,4.75,7.22-1.98,14.41-4.04,21.58-6.17-.78,5.19.07,10.58,3,15.11,7.46,11.58,20.56,14.35,32.62,8.56,1.01-.49,2.02-.97,3.02-1.45.29,1.09.63,2.17,1.06,3.21,4.68,11.09,17.31,17.89,29.26,14.36,21.99-6.5,43.66-14.01,65.07-22.21.25.9.55,1.8.92,2.69,3.99,9.45,15.77,16.69,26.19,12.85,4.82-1.77,9.62-3.57,14.44-5.36,1.78,1.01,3.69,1.79,5.73,2.25,7.48,1.7,13.59.29,20.58-2.69,24.12-10.31,48.25-20.61,72.37-30.91-.25.11,12.71,9.59,15.01,10.08,18.63,3.99,38.1-6.73,55-12.84,3.84-1.39,7.67-2.79,11.5-4.18,7.17,6.01,16.65,8.31,26.41,6.11,21.3-4.81,42.08-13.98,59.84-26.7,6.28-4.5,11.18-9.61,13.3-17.3,1.91-6.93,1.05-16.15-2.92-22.3-1.27-1.97-2.83-3.83-4.59-5.51.46-1.86.75-3.76.86-5.67,6.87-3.12,13.73-6.25,20.6-9.37,5.78-2.63,11.54-10.76,12.91-16.79,1.43-6.29,1.1-12.33-1.42-18.3Z"/>
      <path class="cls2-2" d="m570.64,108.51c.69-.58,1.35-1.18,1.98-1.81.01,0,.03-.02.05-.04,0,0,.02,0,.04-.02-2.92,3.04-2.94,2.81-2.07,1.87Z"/>
      <path class="cls2-2" d="m640.49,173.13c.69-.58,1.35-1.18,1.98-1.81.01,0,.03-.02.05-.04,0,0,.02,0,.04-.02-2.92,3.04-2.94,2.81-2.07,1.87Z"/>
    </g>
    <g>
      <path class="cls2-3" d="m525.4,169.78c-1.24-.98-2.8-.63-4.19-1.01-2.31-.62-4.55-1.34-6.51-2.74-5.33-3.81-5.11-10.13.44-13.54.37-.23.76-.43,1.36-.78-2.21-1.72-3.2-3.89-2.71-6.58.47-2.58,2.28-4.21,4.52-5.75-3.54-2.51-5.78-5.56-5.88-9.87-.12-5.44,2.72-9.73,7.96-11.77,3.87-1.5,8.01-2.09,11.87-.78,4.31,1.46,8.6,1.32,12.96,1.4,1,.02,2.54-.58,2.4,1.4-.12,1.61.81,3.95-1.82,4.2-2.93.27-3.25,1.42-2.85,4.14.99,6.64-4.64,12.53-12.31,13.26-1.91.18-3.87.14-5.78-.03-1.62-.14-2.7.47-2.93,1.92-.24,1.51,1.06,2.05,2.31,2.36,3.79.94,7.71.32,11.52.99,1.29.23,2.62.32,3.89.64,6.93,1.71,9.59,8.13,5.82,14.26-3.05,4.97-7.99,6.84-13.44,7.74-.64.11-1.44-.31-1.87.54h-4.75Zm2.85-7.13c2.53-.09,5.07-.14,7.41-1.34,1.6-.82,2.65-2.04,2.54-3.92-.11-1.94-1.59-2.57-3.2-2.93-3.95-.87-7.99-.99-11.99-.95-2.14.02-3.34,1.8-3.81,3.76-.45,1.86.6,3.17,2.16,4.08,2.14,1.23,4.54,1.15,6.89,1.3Zm-7.15-33.53c-.02,3.94,2.52,6.38,6.67,6.41,4.16.03,6.8-2.42,6.79-6.29,0-3.87-2.37-6.08-6.55-6.14-4.37-.06-6.89,2.14-6.92,6.02Z"/>
      <path class="cls2-3" d="m565.47,151.91c-1.29,1.91-2.33,4.02-5.06,4.38-3,.4-5.74-1.13-6.54-3.9-.86-2.96.59-6.06,3.32-7.09,2.88-1.08,5.97.1,7.41,2.73.32.58.07,1.44.87,1.77v2.1Z"/>
      <path class="cls2-3" d="m241.63,59.48c7.34-6.89,15.94-6.24,19.87,2,3.54-5.5,8.69-7.4,14.91-6.47,6.21.93,10.3,4.99,10.57,11.24.38,8.82.15,17.67.21,26.51,0,1.01-.37,1.46-1.38,1.36-.17-.02-.35,0-.53,0-2.43-.13-5.53,1-7.12-.44-1.5-1.36-.43-4.46-.46-6.8-.07-5.95,0-11.9-.03-17.85-.02-4.47-2.23-6.9-6.16-6.88-3.89.02-6.6,2.78-6.62,6.95-.05,7.61-.06,15.23.02,22.84.02,1.68-.41,2.38-2.18,2.21-2.34-.22-5.38.94-6.86-.44-1.5-1.4-.41-4.46-.48-6.79-.19-6.38.35-12.78-.29-19.14-.35-3.47-1.92-5.13-4.9-5.57-2.61-.39-6.76,1.48-7.73,3.62-.3.67-.25,1.53-.25,2.3-.02,7.79-.06,15.58.03,23.36.02,1.91-.25,2.98-2.52,2.67-2.23-.3-5.22.94-6.53-.52-1.11-1.25-.4-4.15-.4-6.32-.02-9.54.09-19.08-.07-28.61-.04-2.64.5-3.65,3.37-3.46,4.22.27,4.37.17,5.54,4.25Z"/>
      <path class="cls2-3" d="m449.15,139.95c0-4.47-.07-8.93.03-13.4.04-1.74-.35-2.5-2.3-2.44-4.48.14-8.96.09-13.44.02-1.44-.02-2.02.34-2,1.89.07,6.39-.02,12.78.05,19.18.04,3.1,2.02,4.26,5.03,3.17,1.01-.37,2.14-1.43,3.09-.18,1.1,1.44,2.03,3.04,2.81,4.68.24.51-.71.9-1.22,1.2-3.96,2.36-8.22,3.02-12.66,1.87-3.92-1.02-6.42-4.34-6.52-8.86-.15-6.74-.15-13.48-.02-20.22.05-2.22-.63-2.97-2.8-2.73-1.56.17-3.09,0-3.05-2.2.03-1.84-.62-4.15,2.51-3.94,3.44.24,4.17-1.86,4.47-4.63.21-1.99.64-3.97,1.1-5.93.46-1.95,5.52-3.32,6.93-1.93.5.5.29,1.16.29,1.75.02,2.71.1,5.43-.02,8.14-.07,1.62.48,2.09,2.09,2.08,7.47-.07,14.94.04,22.4-.08,2.08-.03,2.9.39,2.88,2.7-.12,11.12-.1,22.24-.01,33.36.02,1.98-.56,2.52-2.53,2.51-7.12-.03-7.12.05-7.12-7.08,0-2.98,0-5.95,0-8.93Z"/>
      <path class="cls2-3" d="m248.82,116.5c12.14.12,19.48,8.2,19.07,21.09-.27,8.4-4.45,15.08-11.52,17.46-7.91,2.66-15.58,2.11-21.68-4.17-5.96-6.14-6.27-13.82-4.19-21.6,1.84-6.87,6.66-10.9,13.62-12.31,1.53-.31,3.13-.32,4.69-.47Zm9.25,20.11c.15-2.47-.22-4.88-1.06-7.2-1.29-3.61-3.84-5.41-7.74-5.55-4.37-.15-7.19,1.34-8.67,4.96-2.04,4.97-2.03,10.06-.13,15.06,1.34,3.54,4.37,5.34,8.27,5.32,4.06-.02,6.9-1.93,8.28-5.65.82-2.23,1.21-4.55,1.06-6.93Z"/>
      <path class="cls2-3" d="m222.17,74.67c0,5.69-.1,11.38.05,17.07.05,2.05-.62,2.66-2.53,2.4-.86-.12-1.76-.07-2.63-.01-1.88.12-3.08-.59-3.26-2.56-.17-1.93-.87-1.65-2.06-.65-2.98,2.51-6.39,3.88-10.37,3.82-7.09-.1-12.22-4.57-12.85-11.64-.78-8.73-.18-17.5-.36-26.25-.03-1.34.61-1.61,1.78-1.58,1.93.06,3.87.11,5.8-.01,1.65-.11,2.1.51,2.08,2.09-.07,7-.04,14.01-.03,21.01,0,1.05.01,2.1.13,3.14.44,3.96,2.68,5.84,6.72,5.76,3-.06,5.31-1.58,7.5-3.4.9-.75.6-1.77.6-2.69.02-7.79.07-15.59-.03-23.38-.02-1.84.27-2.8,2.4-2.53,2.24.28,5.16-.92,6.6.49,1.44,1.42.41,4.32.45,6.57.07,4.11.02,8.23.02,12.34Z"/>
      <path class="cls2-3" d="m379.61,151.5c-3.25,2.88-6.8,4.93-11.3,4.95-7.34.03-12.15-3.95-13.25-11.17-.82-5.4-.3-10.84-.41-16.26-.07-3.33.06-6.66-.04-9.98-.05-1.52.49-1.89,1.96-1.94,7.57-.22,7.57-.26,7.57,7.32,0,5.6-.04,11.21.02,16.81.05,4.18,1.47,6.62,4.17,7.45,3.26,1.01,8.62-.75,10.53-3.38.59-.81.39-1.68.39-2.52.02-7.79.07-15.59-.03-23.38-.03-1.88.56-2.32,2.37-2.31,7.04.02,7.04-.05,7.04,6.85,0,9.46.01,18.91,0,28.37,0,4.04.44,3.56-3.72,3.58-3.62.02-3.62,0-5.29-4.4Z"/>
      <path class="cls2-3" d="m478.59,121.44c3.4-3.01,6.99-4.91,11.51-4.86,7.51.09,12.74,4.39,13.07,11.83.39,8.65.13,17.32.19,25.98,0,1.15-.46,1.54-1.56,1.52-1.93-.04-3.87-.1-5.79.02-1.69.11-2.07-.62-2.05-2.16.06-6.65.03-13.3.02-19.95,0-1.14-.05-2.27-.13-3.41-.34-4.76-2.59-6.72-7.34-6.42-4.84.31-7.5,3.14-7.5,7.96,0,7.26-.06,14.53.04,21.79.03,1.78-.54,2.33-2.23,2.17-2.34-.21-5.34.95-6.87-.48-1.42-1.32-.42-4.31-.43-6.56-.05-9.71.03-19.43-.06-29.14-.02-1.95.35-3.02,2.54-2.61.17.03.35,0,.53,0q4.57,0,6.06,4.3Z"/>
      <path class="cls2-3" d="m285.42,121.42c3.25-2.79,6.57-4.77,10.78-4.82,8.36-.11,13.47,4.04,13.91,12.36.45,8.46.14,16.97.2,25.45,0,1.16-.47,1.42-1.55,1.51-7.97.65-7.97.67-7.97-7.18,0-5.86.02-11.72,0-17.58-.02-3.85-1.57-6.3-4.31-7.02-3.2-.84-8.71,1.08-10.21,3.52-.46.74-.29,1.53-.3,2.29-.02,7.87-.06,15.75.03,23.62.02,1.82-.48,2.53-2.35,2.35-2.26-.21-5.18.91-6.63-.42-1.6-1.47-.52-4.45-.53-6.76-.07-9.8,0-19.6-.06-29.39-.01-1.65.36-2.5,2.16-2.21.34.05.7,0,1.05,0q4.38,0,5.79,4.28Z"/>
      <path class="cls2-3" d="m322.11,89.73c-3.25,2.58-6.37,4.73-10.46,4.94-8.57.44-14.26-4.42-14.49-12.95-.22-8.22-.03-16.45-.08-24.68,0-1.39.46-1.73,1.81-1.78,7.63-.28,7.62-.32,7.63,7.29,0,5.95-.07,11.9.09,17.85.15,5.68,4.1,8.24,9.56,6.38,4.16-1.41,5.27-2.92,5.27-7.16,0-7.35.06-14.7-.04-22.05-.03-1.89.58-2.47,2.39-2.3,2.25.21,5.14-.9,6.62.43,1.52,1.37.49,4.29.5,6.53.06,9.54-.1,19.08.1,28.61.06,2.86-.87,3.71-3.48,3.27-.09-.01-.18,0-.26,0q-4.06,0-5.16-4.38Z"/>
      <path class="cls2-3" d="m386.38,89.71c-3.22,2.72-6.4,4.76-10.5,4.96-8.36.41-14-4.22-14.33-12.54-.34-8.39-.08-16.81-.14-25.21,0-1.27.46-1.58,1.68-1.64,7.84-.44,7.84-.47,7.84,7.31,0,5.87-.03,11.73,0,17.6.03,5.78,4.11,8.55,9.62,6.6,4.19-1.49,5.21-2.89,5.21-7.21,0-7.36.05-14.71-.04-22.07-.02-1.7.45-2.23,2.2-2.24,7.34-.06,7.34-.12,7.34,7.06,0,9.72-.08,19.44.06,29.16.03,2.25-.65,3.01-2.78,2.64-.17-.03-.35,0-.53,0q-4.42,0-5.63-4.4Z"/>
      <path class="cls2-3" d="m417.67,94.71c-5.18.08-9.32-1.09-13.11-3.56-1.17-.76-1.47-1.35-.67-2.68,2.36-3.92,3.14-4.24,7.27-1.97,2.59,1.42,5.29,1.87,8.13,1.28,2-.42,3.57-1.43,3.88-3.71.31-2.26-1.03-3.46-2.84-4.18-2.76-1.09-5.64-1.91-8.39-3.03-7.26-2.94-9.81-9.3-6.32-15.6,2.3-4.16,6.21-5.76,10.64-6.34,4.87-.63,9.45.28,13.53,3.09.78.54,2.52.94,1.4,2.49-1.12,1.55-1.48,4.35-4.48,3.39-1.99-.64-3.8-1.82-5.95-2.03-.7-.07-1.4-.24-2.09-.2-3.07.2-5.25,1.62-5.38,3.72-.17,2.77,2.05,3.65,4.1,4.44,2.61,1.01,5.33,1.76,7.93,2.8,3.71,1.49,6.47,3.88,6.76,8.21.34,4.96-1.41,8.94-5.73,11.57-2.84,1.72-6.02,2.34-8.67,2.3Z"/>
      <path class="cls2-3" d="m333.5,116.72c3.9-.32,7.49.71,10.69,2.89.83.57,2.71.96,1.58,2.66-1.08,1.63-1.62,4.21-4.56,3.31-1-.31-1.93-.83-2.91-1.21-2.52-.98-5.07-1.33-7.7-.38-1.54.56-2.51,1.63-2.69,3.25-.18,1.6.76,2.68,2.09,3.33,1.49.73,3.05,1.29,4.61,1.88,1.8.68,3.65,1.24,5.43,1.96,3.53,1.44,6.19,3.72,6.61,7.76.48,4.58-.89,8.5-4.7,11.3-5.93,4.36-17.73,3.81-23.3-.96-.76-.65-.88-1.12-.36-1.94,1.96-3.07,2.67-5.54,7.53-2.39,2.35,1.52,5.03,2.05,7.82,1.4,2.08-.48,3.81-1.42,4.12-3.82.32-2.52-1.35-3.64-3.32-4.4-3.02-1.16-6.14-2.09-9.14-3.31-3.16-1.29-5.38-3.52-6.17-6.98-1.63-7.15,3.32-13.53,11.21-14.35,1.04-.11,2.1-.01,3.16-.01Z"/>
      <path class="cls2-3" d="m166.68,94.65c-8.91,0-15.22-4.98-17.27-13.88-1.51-6.54-1.02-12.91,2.84-18.64,5.73-8.5,20.33-9.98,27.84-2.96.94.88.83,1.4.18,2.35-2.59,3.75-2.87,3.86-6.93,1.78-6.58-3.37-12.84-.41-14.45,6.82-.71,3.22-.67,6.43.09,9.62,1.72,7.22,8.67,9.96,14.89,5.9,3.53-2.3,5.25-1.79,7.16,1.95.55,1.07-.16,1.44-.69,1.95-3.8,3.69-8.47,5.11-13.67,5.11Z"/>
      <path class="cls2-3" d="m211.47,116.62c3.91-.25,7.78.93,11.16,3.57.82.64,2.63,1.19,1.3,2.76-1.24,1.47-1.72,4.19-4.63,3.32-.74-.22-1.42-.67-2.1-1.05-6.56-3.63-13.19-.76-14.77,6.51-.75,3.45-.73,6.96.27,10.39,1.94,6.67,8.47,9.14,14.37,5.45.45-.28.87-.6,1.29-.9.94-.68,1.98-1.46,3.12-.74,1.5.95,2.55,2.43,3.27,4.01.32.7-.77,1.29-1.33,1.77-5.61,4.74-12.1,5.84-18.99,3.85-6.64-1.91-10.12-6.95-11.6-13.4-1.14-4.96-.88-9.92,1.01-14.7,2.8-7.09,8.83-10.85,17.64-10.84Z"/>
      <path class="cls2-3" d="m351.2,65.98c0,8.65-.04,17.31.03,25.96.01,1.67-.4,2.36-2.19,2.21-2.35-.19-5.4.74-6.9-.42-1.61-1.24-.51-4.42-.52-6.74-.05-15.39.01-30.77-.07-46.16-.01-2.13.49-2.84,2.73-2.8,6.92.12,6.92.02,6.92,6.96s0,13.99,0,20.98Z"/>
      <path class="cls2-3" d="m399.38,127.73c0-8.57.04-17.15-.03-25.72-.01-1.62.31-2.25,2.13-2.26,7.32-.04,7.32-.11,7.32,7.07,0,15.48-.03,30.97.04,46.45,0,1.99-.4,2.91-2.58,2.65-2.16-.26-5,.89-6.37-.42-1.49-1.42-.47-4.29-.49-6.52-.07-7.09-.03-14.17-.03-21.26Z"/>
      <path class="cls2-3" d="m448.33,105.69c.02-3.43,2.59-5.96,5.98-5.88,3.31.07,6.05,2.83,6.01,6.03-.04,3.2-2.89,5.93-6.15,5.91-3.39-.03-5.86-2.59-5.84-6.06Z"/>
    </g>
    <text class="cls2-1" transform="translate(469.19 83.22) rotate(.44)"><tspan x="0" y="0">2024</tspan></text>
  </g>
</svg>