<?xml version="1.0" encoding="UTF-8"?>
<svg id="pointer" data-name="Layer 2" xmlns="http://www.w3.org/2000/svg" viewBox="0 0 61.55 86.9">
  <defs>
    <style>
      .cls5-1 {
        fill: #009ee2;
      }

      .cls5-1, .cls5-2 {
        stroke-width: 0px;
      }

      .cls5-2 {
        fill: #fff;
      }
    </style>
  </defs>
  <g >
    <g>
      <path class="cls5-2" d="m56.55,45.31c-2.91-.97-5.9-1.79-8.94-2.44-.41-.76-1.06-1.42-1.83-1.85-1.56-.87-3.23-.84-4.83-.11-.08.04-.16.08-.23.12-2.13-.84-4.34-1.66-6.49-1.83-4.03-.32-7.4,2.41-7.61,6.51-.03.58.08,1.13.29,1.65-.25.24-.48.48-.69.73.23-2.65.58-5.28,1.02-7.86.73-4.32,1.27-8.95.15-13.11.19-.09.38-.2.57-.34.09-.07.16-.14.22-.22.46-.44.75-1.08.73-1.71,0-.01,0-.02,0-.03.04-.24.03-.47-.02-.71-.06-.44-.14-.72-.36-1.15-.21-.41-.53-.82-.86-1.15-.46-.45-.98-.79-1.6-.97-.67-.2-1.28-.1-1.95,0-.09.01-.18.04-.27.07-.02-.02-.04-.04-.06-.06-1.4-1.39-4.14-.85-4.59,1.21-.21.99-.39,2-.53,3.02-.57,1.24-.73,2.67-.38,4.14,0,0,0,0,0,0-.18,4.55.44,9.14,2.13,13.35.03.09.07.17.11.25-.59,3.83-.9,7.66-1.03,11.5-2.92-2.48-6.27-4.45-9.95-5.75-1.63-.57-3.61.38-4.45,1.81-.92,1.58-.54,3.44.62,4.77,3.8,4.37,7.3,8.96,10.38,13.86,1.63,2.59,3.17,5.23,4.61,7.93,1.45,2.71,2.57,5.71,5.56,7.07,2.75,1.25,6.17,1.18,9.14,1.51,2.77.31,5.54.79,8.32.42,3.23-.44,6.07-2.22,7.56-5.19,1.38-2.76,1.99-5.94,2.8-8.9,1.92-7.05,3.77-14.12,5.49-21.23.57-2.37-.75-4.57-3.03-5.34Z"/>
      <path class="cls5-1" d="m25.42,83.19c-1.6-2.17-2.12-5-3.73-7.25-1.36-1.91-2.99-3.63-4.25-5.61-1.49-2.32-2.36-5.02-3.93-7.29-1.29-1.87-3.06-3.26-4.27-5.2-.75-1.2-1.84-2.82-2.26-4.18-1.12-3.55,1.52-3.52,4.06-2.42,2.21.96,4.18,3.95,4.95,5.41.34.65.43,1.14.82,1.75-.3-.47-.34-.62.02.02.27.48.83.8,1.38.79l-.28-.05c1.16.22,2.59-.53,2.49-1.9-.33-4.64-4.99-9.3-9.39-10.36s-9.17.27-8.43,5.54c.86,6.14,6.05,9.6,8.97,14.57,1.81,3.08,3.43,5.92,5.67,8.72s3.78,6.26,6.08,9.05c.95,1.15,2.99-.39,2.09-1.61h0Z"/>
      <path class="cls5-1" d="m21.11,55.75c-.42-3.12-.26-6.29-.66-9.43-.42-3.39-.93-6.63-.93-10.05,0-4.52-1.4-10.13,2.22-13.83,5.19-5.29,5.5,8.97,5.58,11.62.16,4.85-.96,9.74.16,14.49.42,1.79,3.19,1.79,3.62,0,1.37-5.74,3.68-34.88-8.12-31.55-5.63,1.59-7.84,8.26-7.6,13.42.4,8.45,1.9,17.33,3.69,25.6.24,1.12,2.19.89,2.03-.28h0Z"/>
      <path class="cls5-1" d="m32.45,41.64c.3-.94,1.8-1.56,2.57-1.57,1.34-.03,2.41.66,2.77,1.97.27.96.19,2.23.16,3.22s-.37,2,0,2.93c.21.53.81.9,1.36.55,1.78-1.13,1.7-3.49,1.65-5.34-.05-1.97-.47-3.96-2.14-5.21-2.93-2.2-7.97-1.03-8.96,2.73-.44,1.68,2.07,2.36,2.59.71h0Z"/>
      <path class="cls5-1" d="m39.7,42.95c1.74-2.24,5.37-2.51,7.52-.69,2.26,1.92-.74,6.57-1.04,8.94-.19,1.49,2.28,2.15,2.87.78,1.72-3.98,3.34-10.65-1.56-12.86-2.04-.92-4.44-1.51-6.54-.45-1.23.62-3.63,2.12-2.98,3.82.24.63,1.2,1.14,1.73.46h0Z"/>
      <path class="cls5-1" d="m49.2,44.39c1.17.73,2.18-.19,3.48-.03,3.69.45,4.96,4.2,4.93,7.42-.05,5.02-1.12,10.18-3.12,14.75-1.72,3.94-3.63,7.62-4.37,11.89-.23,1.36.03,2.77-.04,4.01-.08,1.39-.87,2.07.14,3.44,1.78,2.42,5.88.1,4.09-2.39.71.99.42-3.58.54-4.31.45-2.7,1.22-5.23,2.39-7.71,2.63-5.56,4.17-11.15,4.3-17.31.09-4.52-.24-9.16-4.54-11.65-2.26-1.31-7.67-2.76-8.19,1.23-.03.26.17.53.38.66h0Z"/>
      <path class="cls5-1" d="m25.32,85.66c4.95.11,9.96,1.18,14.88,1.06,2.28-.06,4.51-.02,6.79-.05.46,0,1.48.02,1.96-.13.81-.26.58,1.37-.22-.85.58,1.6,3.28,1.51,3.17-.43v-.1c-.04-.7-.48-1.4-1.2-1.57-3.43-.82-7.5.09-11.06.23-4.87.18-9.75-1.38-14.6-.31-1.24.27-.92,2.13.29,2.16h0Z"/>
      <path class="cls5-1" d="m5.83,9.05c1.21-.11,2.87,1.43,3.83,2.06,1.31.85,2.65,1.82,4.27,1.79.71-.02,1.03-.72.76-1.32-.98-2.17-8.04-8.09-9.99-4.5-.43.8.09,2.07,1.13,1.97h0Z"/>
      <path class="cls5-1" d="m23.25,7.8c.42-1.25.73-2.55,1-3.84.24-1.12.56-2.48-.05-3.52-.18-.3-.63-.54-.97-.4-2.34.95-2.27,4.88-2.83,6.97-.5,1.85,2.25,2.58,2.85.79h0Z"/>
      <path class="cls5-1" d="m34.47,9.48c.8-1.24,1.79-2.33,2.57-3.6.53-.87,2.05-2.65.76-3.51s-2.86.98-3.55,1.89c-.43.57-.79,1.2-1.23,1.77-.48.6-1.01,1.13-1.45,1.77-1.21,1.79,1.72,3.5,2.9,1.69h0Z"/>
      <path class="cls5-1" d="m35.35,21.57c1.51.14,3.03.3,4.49.7s2.46,1.11,3.9.45c.66-.3.7-1.15.45-1.72-.58-1.31-2.63-1.76-3.89-2-1.64-.31-3.29-.4-4.96-.45-1.96-.06-1.9,2.83,0,3.01h0Z"/>
      <path class="cls5-1" d="m1.94,24.8c2.11-.64,4.3-1.05,6.43-1.63,1.88-.51,4.09-.92,5.51-2.33.65-.65.25-1.55-.49-1.86-1.98-.82-4.48-.02-6.45.56-2.14.63-4.26,1.29-6.2,2.41-1.51.87-.51,3.35,1.2,2.84h0Z"/>
    </g>
  </g>
</svg>