<?xml version="1.0" encoding="UTF-8"?>
<svg id="home" data-name="Layer 2" xmlns="http://www.w3.org/2000/svg" viewBox="0 0 179.82 124">
  <defs>
    <style>
      .cls3-1 {
        fill: none;
      }

      .cls3-1, .cls3-2 {
        stroke-width: 0px;
      }

      .cls3-2 {
        fill: #009ee2;
      }
    </style>
  </defs>
  <g >
    <g>
      <rect class="cls3-1" width="179.82" height="124"/>
      <g>
        <path class="cls3-2" d="m36.64,86.92c4.79,8.14,16.86,2.69,20.99-3.25l-3.31,3.31c8.74-6.2,16.66-13.57,25.14-20.12,4.2-3.25,8.76-6.38,12.25-10.42,3.07-3.55,7.78-7.27,8.67-12.07.98-5.28-2.19-9.58-7.59-9.97-6.02-.44-10.9,2.89-15.03,6.92-3.84,3.74-7.84,7-12.1,10.26-4.66,3.57-8.73,7.54-12.99,11.56-2.16,2.04-4.36,4.04-6.5,6.1s-4.48,5.66-5.36,6.87l3.21-3.21c-2.26,1.55-4.18,2.28-5.62,4.86-.45.81-1.09,1.99-1.17,2.92-.11,1.33,2-2.78.34-.9s-2.3,4.78-.92,7.13h0Z"/>
        <path class="cls3-2" d="m146.96,79.79c-1.43-1.62.2,1.19.44,1.35-.6-.4-.85-2.62-1.27-3.37-1.39-2.49-3.4-3.33-5.62-4.86l3.21,3.21c.53.72-1.29-2.23-1.6-2.7-.89-1.32-2.01-2.43-3.12-3.56-2.07-2.12-4.33-4.07-6.49-6.1-4.48-4.21-8.75-8.42-13.64-12.17-4.02-3.08-7.99-6.04-11.55-9.66-4.24-4.31-9.23-7.99-15.59-7.53-5.4.39-8.57,4.69-7.59,9.97.88,4.72,5.19,7.94,8.13,11.45,3.61,4.32,8.37,7.61,12.79,11.03,8.47,6.56,16.4,13.92,25.14,20.12l-3.31-3.31c4.14,5.95,16.18,11.42,20.99,3.25,1.39-2.37.82-5.16-.92-7.13h0Z"/>
      </g>
    </g>
  </g>
</svg>