<?xml version="1.0" encoding="UTF-8"?>
<svg xmlns="http://www.w3.org/2000/svg" viewBox="0 0 2560 1440">
  <defs>
    <style>
      .cls-1 {
        font-size: 185.49px;
      }

      .cls-1, .cls-2, .cls-3 {
        font-family: Boogaloo-Regular, Boogaloo;
      }

      .cls-4 {
        stroke-width: 0px;
      }


      .cls-5 {
        fill: none;
        stroke: #1d1d1b;
        stroke-linecap: round;
        stroke-miterlimit: 10;
        stroke-width: 22.68px;
      }

      .cls-6 {
        letter-spacing: .02em;
      }

      .cls-2 {
        font-size: 159.36px;
      }

      .cls-3 {
        font-size: 117.97px;
      }
    </style>
  </defs>
  <g id="pulk">
    <rect class="cls-4" x="322.29" y="808.1" width="1915.41" height="165.18"/>
  </g>
  <g id="Layer_48" data-name="Layer 48">
    <text class="cls-1" transform="translate(655.93 352.52)"><tspan x="0" y="0">MAIDU KODU</tspan><tspan class="cls-6" x="893.12" y="0">L</tspan><tspan x="968.61" y="0">AEN</tspan></text>
    <path class="cls-5" d="m322.16,973.27q0-41.29.1-82.59t-.03-82.59"/>
    <path class="cls-5" d="m2237.71,972.69c-35.47,0-35.47.39-70.94.39s-35.47-1.79-70.94-1.79-35.47,2.23-70.94,2.23-35.47,1.38-70.94,1.38-35.47-4.4-70.94-4.4-35.47,5.39-70.94,5.39-35.47-4.11-70.94-4.11-35.47,1.66-70.94,1.66-35.47,1.01-70.94,1.01-35.47-3.19-70.94-3.19-35.47,2.25-70.94,2.25-35.47-1.46-70.94-1.46-35.47.34-70.94.34-35.47,3.4-70.94,3.4-35.47-2.42-70.94-2.42-35.47-2.9-70.94-2.9-35.47,1.49-70.94,1.49-35.47.08-70.94.08-35.47-.61-70.94-.61-35.47,4.22-70.94,4.22c-35.47,0-35.47-1.22-70.94-1.22-35.47,0-35.47.86-70.94.86-35.47,0-35.47-.34-70.94-.34s-35.47-1.84-70.94-1.84-35.47-.16-70.95-.16-35.47-2.42-70.95-2.42-35.47,5.61-70.95,5.61"/>
    <path class="cls-5" d="m2237.73,808.1q0,41.29-.02,82.59t-.02,82.59"/>
    <path class="cls-5" d="m322.29,806.57q35.47,0,70.94-.04c35.47,0,35.47,1.55,70.94,1.55s35.47-.6,70.94-.6,35.47-1.36,70.94-1.36,35.47,3.58,70.94,3.58,35.47.54,70.94.54,35.47-4.74,70.94-4.74,35.47.45,70.94.45,35.47,2.15,70.94,2.15,35.47,1.76,70.94,1.76,35.47-.96,70.94-.96,35.47-3.01,70.94-3.01,35.47,1.13,70.94,1.13,35.47,1.9,70.94,1.9,35.47,1.12,70.94,1.12,35.47-.69,70.94-.69,35.47.91,70.94.91,35.47-.83,70.94-.83,35.47,1.38,70.94,1.38,35.47-1.42,70.94-1.42,35.47-.96,70.94-.96,35.47-1.99,70.94-1.99,35.47,1.92,70.94,1.92,35.47.54,70.94.54,35.47-.59,70.95-.59,35.47-1.89,70.95-1.89,35.47,2.63,70.95,2.63"/>
  </g>
  <g id="makstud">
    <text class="cls-3" transform="translate(1346.16 699.9)"><tspan x="0" y="0">makstud</tspan></text>
  </g>
  <g id="protsent">
    <text class="cls-2" transform="translate(1267.38 699.9)"><tspan x="0" y="0">%</tspan></text>
  </g>
</svg>